<svg width="100" height="27" viewBox="0 0 100 27" fill="none" xmlns="http://www.w3.org/2000/svg">
<g clip-path="url(#clip0_7593_349)">
<path d="M5.77841 20H1.13778V6.90909H5.81676C7.13352 6.90909 8.26705 7.17116 9.21733 7.69531C10.1676 8.2152 10.8984 8.96307 11.4098 9.93892C11.9254 10.9148 12.1832 12.0824 12.1832 13.4418C12.1832 14.8054 11.9254 15.9773 11.4098 16.9574C10.8984 17.9375 10.1634 18.6896 9.20455 19.2138C8.25 19.7379 7.10795 20 5.77841 20ZM3.90554 17.6286H5.66335C6.48153 17.6286 7.16974 17.4837 7.72798 17.1939C8.29048 16.8999 8.71236 16.446 8.99361 15.8324C9.27912 15.2145 9.42188 14.4176 9.42188 13.4418C9.42188 12.4744 9.27912 11.6839 8.99361 11.0703C8.71236 10.4567 8.29261 10.005 7.73438 9.7152C7.17614 9.42543 6.48793 9.28054 5.66974 9.28054H3.90554V17.6286ZM18.6184 20.1918C17.6255 20.1918 16.7669 19.9808 16.0424 19.5589C15.3223 19.1328 14.7662 18.5405 14.3741 17.782C13.9821 17.0192 13.786 16.1349 13.786 15.1293C13.786 14.1151 13.9821 13.2287 14.3741 12.4702C14.7662 11.7074 15.3223 11.1151 16.0424 10.6932C16.7669 10.267 17.6255 10.054 18.6184 10.054C19.6113 10.054 20.4679 10.267 21.188 10.6932C21.9125 11.1151 22.4707 11.7074 22.8627 12.4702C23.2548 13.2287 23.4508 14.1151 23.4508 15.1293C23.4508 16.1349 23.2548 17.0192 22.8627 17.782C22.4707 18.5405 21.9125 19.1328 21.188 19.5589C20.4679 19.9808 19.6113 20.1918 18.6184 20.1918ZM18.6312 18.0824C19.0829 18.0824 19.46 17.9545 19.7626 17.6989C20.0652 17.4389 20.2931 17.0852 20.4466 16.6378C20.6042 16.1903 20.6831 15.6811 20.6831 15.1101C20.6831 14.5391 20.6042 14.0298 20.4466 13.5824C20.2931 13.1349 20.0652 12.7812 19.7626 12.5213C19.46 12.2614 19.0829 12.1314 18.6312 12.1314C18.1752 12.1314 17.7917 12.2614 17.4806 12.5213C17.1738 12.7812 16.9416 13.1349 16.7839 13.5824C16.6305 14.0298 16.5538 14.5391 16.5538 15.1101C16.5538 15.6811 16.6305 16.1903 16.7839 16.6378C16.9416 17.0852 17.1738 17.4389 17.4806 17.6989C17.7917 17.9545 18.1752 18.0824 18.6312 18.0824ZM29.6958 20.1918C28.6859 20.1918 27.8166 19.9872 27.0879 19.5781C26.3635 19.1648 25.8052 18.581 25.4132 17.8267C25.0211 17.0682 24.8251 16.1712 24.8251 15.1357C24.8251 14.1257 25.0211 13.2393 25.4132 12.4766C25.8052 11.7138 26.3571 11.1193 27.0687 10.6932C27.7846 10.267 28.6241 10.054 29.5872 10.054C30.2349 10.054 30.8379 10.1584 31.3961 10.3672C31.9586 10.5717 32.4487 10.8807 32.8663 11.294C33.2882 11.7074 33.6163 12.2273 33.8507 12.8537C34.0851 13.4759 34.2022 14.2045 34.2022 15.0398V15.7876H25.9118V14.1001H31.639C31.639 13.7081 31.5538 13.3608 31.3833 13.0582C31.2129 12.7557 30.9764 12.5192 30.6738 12.3487C30.3755 12.174 30.0282 12.0866 29.6319 12.0866C29.2186 12.0866 28.8521 12.1825 28.5325 12.3743C28.2172 12.5618 27.97 12.8153 27.791 13.1349C27.612 13.4503 27.5204 13.8018 27.5162 14.1896V15.794C27.5162 16.2798 27.6056 16.6996 27.7846 17.0533C27.9679 17.407 28.2257 17.6797 28.5581 17.8714C28.8904 18.0632 29.2846 18.1591 29.7406 18.1591C30.0431 18.1591 30.3201 18.1165 30.5716 18.0312C30.823 17.946 31.0382 17.8182 31.2172 17.6477C31.3961 17.4773 31.5325 17.2685 31.6262 17.0213L34.1447 17.1875C34.0169 17.7926 33.7548 18.321 33.3585 18.7727C32.9664 19.2202 32.4593 19.5696 31.8372 19.821C31.2193 20.0682 30.5055 20.1918 29.6958 20.1918ZM37.4814 6.90909L40.6454 16.8551H40.7669L43.9373 6.90909H47.0055L42.4927 20H38.926L34.4068 6.90909H37.4814ZM48.53 20V10.1818H51.253V20H48.53ZM49.8979 8.91619C49.4931 8.91619 49.1458 8.78196 48.856 8.51349C48.5705 8.24077 48.4277 7.91477 48.4277 7.53551C48.4277 7.16051 48.5705 6.83878 48.856 6.57031C49.1458 6.29758 49.4931 6.16122 49.8979 6.16122C50.3027 6.16122 50.6479 6.29758 50.9334 6.57031C51.2232 6.83878 51.3681 7.16051 51.3681 7.53551C51.3681 7.91477 51.2232 8.24077 50.9334 8.51349C50.6479 8.78196 50.3027 8.91619 49.8979 8.91619ZM57.0522 20.1598C56.3065 20.1598 55.631 19.968 55.0259 19.5845C54.4251 19.1967 53.9478 18.6278 53.5941 17.8778C53.2447 17.1236 53.07 16.1989 53.07 15.1037C53.07 13.9787 53.2511 13.0433 53.6133 12.2976C53.9755 11.5476 54.457 10.9872 55.0579 10.6165C55.663 10.2415 56.3256 10.054 57.0458 10.054C57.5955 10.054 58.0536 10.1477 58.4201 10.3352C58.7908 10.5185 59.0891 10.7486 59.315 11.0256C59.5451 11.2983 59.7198 11.5668 59.8391 11.831H59.9222V6.90909H62.6389V20H59.9542V18.4276H59.8391C59.7113 18.7003 59.5302 18.9709 59.2958 19.2393C59.0657 19.5036 58.7653 19.723 58.3945 19.8977C58.0281 20.0724 57.5806 20.1598 57.0522 20.1598ZM57.9151 17.9929C58.354 17.9929 58.7248 17.8736 59.0273 17.6349C59.3342 17.392 59.5685 17.0533 59.7305 16.6186C59.8967 16.1839 59.9798 15.6747 59.9798 15.0909C59.9798 14.5071 59.8988 14 59.7369 13.5696C59.5749 13.1392 59.3406 12.8068 59.0337 12.5724C58.7269 12.3381 58.354 12.2209 57.9151 12.2209C57.4677 12.2209 57.0906 12.3423 56.7837 12.5852C56.4769 12.8281 56.2447 13.1648 56.087 13.5952C55.9293 14.0256 55.8505 14.5241 55.8505 15.0909C55.8505 15.6619 55.9293 16.1669 56.087 16.6058C56.2489 17.0405 56.4812 17.3814 56.7837 17.6286C57.0906 17.8714 57.4677 17.9929 57.9151 17.9929ZM67.6774 20.1854C67.051 20.1854 66.4927 20.0767 66.0027 19.8594C65.5126 19.6378 65.1248 19.3118 64.8393 18.8814C64.5581 18.4467 64.4174 17.9055 64.4174 17.2578C64.4174 16.7124 64.5176 16.2543 64.7179 15.8835C64.9181 15.5128 65.1909 15.2145 65.536 14.9886C65.8812 14.7628 66.2733 14.5923 66.7122 14.4773C67.1554 14.3622 67.6199 14.2812 68.1056 14.2344C68.6767 14.1747 69.1369 14.1193 69.4863 14.0682C69.8358 14.0128 70.0893 13.9318 70.247 13.8253C70.4047 13.7187 70.4835 13.5611 70.4835 13.3523V13.3139C70.4835 12.9091 70.3556 12.5959 70.1 12.3743C69.8485 12.1527 69.4906 12.0419 69.0261 12.0419C68.536 12.0419 68.1461 12.1506 67.8564 12.3679C67.5666 12.581 67.3748 12.8494 67.2811 13.1733L64.7626 12.9688C64.8904 12.3722 65.1419 11.8565 65.5169 11.4219C65.8919 10.983 66.3755 10.6463 66.9679 10.4119C67.5645 10.1733 68.2548 10.054 69.0389 10.054C69.5843 10.054 70.1064 10.1179 70.6049 10.2457C71.1078 10.3736 71.5531 10.5717 71.9409 10.8402C72.3329 11.1087 72.6419 11.4538 72.8677 11.8757C73.0936 12.2933 73.2065 12.794 73.2065 13.3778V20H70.6241V18.6385H70.5474C70.3897 18.9453 70.1788 19.2159 69.9146 19.4503C69.6504 19.6804 69.3329 19.8615 68.9622 19.9936C68.5914 20.1214 68.1632 20.1854 67.6774 20.1854ZM68.4572 18.3061C68.8578 18.3061 69.2115 18.2273 69.5183 18.0696C69.8251 17.9077 70.0659 17.6903 70.2406 17.4176C70.4153 17.1449 70.5027 16.8359 70.5027 16.4908V15.4489C70.4174 15.5043 70.3002 15.5554 70.1511 15.6023C70.0062 15.6449 69.8422 15.6854 69.6589 15.7237C69.4757 15.7578 69.2924 15.7898 69.1092 15.8196C68.926 15.8452 68.7598 15.8686 68.6106 15.8899C68.291 15.9368 68.0119 16.0114 67.7733 16.1136C67.5346 16.2159 67.3493 16.3544 67.2172 16.5291C67.085 16.6996 67.019 16.9126 67.019 17.1683C67.019 17.5391 67.1532 17.8224 67.4217 18.0185C67.6944 18.2102 68.0396 18.3061 68.4572 18.3061Z" fill="#E11D48"/>
<path d="M94.4623 13.7064C94.1916 13.7064 87.4608 13.7064 87.0704 13.7064C86.3466 13.7064 85.7598 14.2581 85.7598 14.9386C85.7598 15.6191 86.3466 16.1708 87.0704 16.1708H87.6862L85.4735 17.4818L81.9998 15.4236C81.3875 15.0609 80.5782 15.2334 80.1923 15.8091C79.8064 16.3849 79.99 17.1457 80.6023 17.5085L84.7748 19.9807C85.2017 20.2337 85.7453 20.2337 86.1723 19.9807L92.6025 16.1708H94.4623V13.7064Z" fill="#E11D48"/>
<path d="M86.6316 10.5436C86.6316 11.4998 85.8071 12.275 84.79 12.275C83.773 12.275 82.9485 11.4999 82.9485 10.5436C82.9485 9.58743 84.79 6.54181 84.79 6.54181C84.79 6.54181 86.6316 9.58739 86.6316 10.5436Z" fill="#E11D48"/>
<path d="M94.4623 13.3367C94.1956 13.3367 87.4642 13.3367 87.0704 13.3367C86.1309 13.3367 85.3666 14.0553 85.3666 14.9386C85.3666 15.6295 85.8343 16.2197 86.4877 16.444L85.4735 17.0449L82.2094 15.1109C81.4146 14.6401 80.3605 14.8649 79.8596 15.6121C79.3587 16.3593 79.5978 17.3504 80.3926 17.8213L84.5651 20.2935C85.12 20.6223 85.8266 20.6226 86.3819 20.2935L92.716 16.5405H94.4623C94.6794 16.5405 94.8554 16.375 94.8554 16.1708V13.7064C94.8554 13.5022 94.6794 13.3367 94.4623 13.3367ZM94.0691 15.8011H92.6025C92.5283 15.8011 92.4556 15.8209 92.3928 15.8581L85.9626 19.6681C85.6639 19.8451 85.2833 19.8453 84.9843 19.6681L80.8118 17.1959C80.3839 16.9423 80.2551 16.4086 80.5248 16.0063C80.7945 15.6039 81.3621 15.4829 81.7901 15.7364L85.2638 17.7946C85.3919 17.8705 85.555 17.8705 85.6831 17.7946L87.7996 16.5405H88.5121C88.7293 16.5405 88.9053 16.375 88.9053 16.1709C88.9053 15.9667 88.7293 15.8012 88.5121 15.8012C87.6996 15.8012 87.8744 15.8012 87.0704 15.8012C86.5645 15.8012 86.1529 15.4142 86.1529 14.9387C86.1529 14.463 86.5645 14.0761 87.0704 14.0761C87.6261 14.0761 93.8374 14.0761 94.069 14.0761L94.0691 15.8011Z" fill="#E11D48"/>
<path d="M84.7902 12.6447C86.0224 12.6447 87.0249 11.7021 87.0249 10.5436C87.0249 9.61163 85.6094 7.1483 85.132 6.35914C84.9815 6.11023 84.5989 6.11014 84.4484 6.35914C83.9631 7.16126 82.5554 9.61335 82.5554 10.5436C82.5554 11.7021 83.5579 12.6447 84.7902 12.6447ZM84.7902 7.30686C85.4516 8.46444 86.2385 10.0142 86.2385 10.5436C86.2385 11.2944 85.5888 11.9053 84.7902 11.9053C83.9916 11.9053 83.3418 11.2944 83.3418 10.5436C83.3418 10.0145 84.1287 8.46459 84.7902 7.30686Z" fill="#E11D48"/>
</g>
<defs>
<clipPath id="clip0_7593_349">
<rect width="100" height="27" fill="white"/>
</clipPath>
</defs>
</svg>
